HIERARCHY
ROOT Hips
{
  OFFSET 0 0 0
  CHANNELS 6 Xposition Yposition Zposition Zrotation Yrotation Xrotation
  JOINT LeftThigh
  {
    OFFSET 8.409438 0 -5.917753
    CHANNELS 3 Zrotation Yrotation Xrotation
    JOINT LeftLeg
    {
      OFFSET 0 0 -42.358652
      CHANNELS 3 Zrotation Yrotation Xrotation
      JOINT LeftFoot
      {
        OFFSET 0 0 -39.357303
        CHANNELS 3 Zrotation Yrotation Xrotation
      }
    }
  }
  JOINT RightThigh
  {
    OFFSET -8.409438 0 -5.917753
    CHANNELS 3 Zrotation Yrotation Xrotation
    JOINT RightLeg
    {
      OFFSET 0 0 -42.358652
      CHANNELS 3 Zrotation Yrotation Xrotation
      JOINT RightFoot
      {
        OFFSET 0 0 -39.357303
        CHANNELS 3 Zrotation Yrotation Xrotation
      }
    }
  }
  JOINT SpineLow
  {
    OFFSET 0 0 4.719101
    CHANNELS 3 Zrotation Yrotation Xrotation
    JOINT SpineMid
    {
      OFFSET 0 0 12.899191
      CHANNELS 3 Zrotation Yrotation Xrotation
      JOINT Chest
      {
        OFFSET 0 0 12.899191
        CHANNELS 3 Zrotation Yrotation Xrotation
        JOINT LeftShoulder
        {
          OFFSET 7.550562 1.41573 9.438202
          CHANNELS 3 Zrotation Yrotation Xrotation
          JOINT LeftArm
          {
            OFFSET 9.155056 0 4.247191
            CHANNELS 3 Zrotation Yrotation Xrotation
            JOINT LeftForearm
            {
              OFFSET 0 0 25.771955
              CHANNELS 3 Zrotation Yrotation Xrotation
              JOINT LeftHand
              {
                OFFSET 0 0 25.197169
                CHANNELS 3 Zrotation Yrotation Xrotation
              }
            }
          }
        }
        JOINT RightShoulder
        {
          OFFSET -7.550562 1.41573 9.438202
          CHANNELS 3 Zrotation Yrotation Xrotation
          JOINT RightArm
          {
            OFFSET -9.155056 0 4.247191
            CHANNELS 3 Zrotation Yrotation Xrotation
            JOINT RightForearm
            {
              OFFSET 0 0 -25.771955
              CHANNELS 3 Zrotation Yrotation Xrotation
              JOINT RightHand
              {
                OFFSET 0 0 -25.197169
                CHANNELS 3 Zrotation Yrotation Xrotation
              }
            }
          }
        }
        JOINT Neck
        {
          OFFSET 0 0 15.101124
          CHANNELS 3 Zrotation Yrotation Xrotation
          JOINT Head
          {
            OFFSET 0 0 11.325843
            CHANNELS 3 Zrotation Yrotation Xrotation
            End Site
            {
              OFFSET 0 0 14.157303
            }
          }
        }
      }
    }
  }
}
MOTION
Frames: 16
Frame Time: 0.0
0.0  93.25843  0.0  -1.681862  -27.018596  -90.110344  20.604756  -12.358735  6.248973  1.223488  -3.445469  1.621951  10.61707  1.03876  4.285034  -10.865382  1.700355  -9.833463  -2.082015  3.374895  2.089867  10.359617  1.918855  1.043288  2.226671  -1.89989  -0.00766  6.098542  -5.187379  -0.196414  6.098542  -5.187379  -0.196414  -34.546154  29.238064  -20.885575  121.451334  62.228106  -156.5225  -27.433483  -4.733484  95.934865  68.453045  -16.794919  9.760121  -6.358853  1.509082  23.749243  60.603057  36.82155  5.610099  12.980544  -22.039553  -128.833856  16.235132  -12.701913  -8.507303  -3.931114  12.34736  7.841511  -3.098043  9.212572  5.938923  
0.0  93.25843  0.0  -1.694505  -27.165178  -90.094209  20.517874  -12.472786  6.062996  1.278202  -3.259701  2.063111  10.621542  1.064559  4.303226  -11.224982  1.540702  -9.87252  -1.772292  3.494679  2.158264  10.452037  1.946327  1.024204  2.235423  -1.905088  -3.65E-4  6.122004  -5.202204  -0.177631  6.122004  -5.202205  -0.177631  -34.721042  29.244888  -20.90931  121.513684  61.680781  -156.273865  -27.199321  -5.422121  96.191691  68.71328  -16.869027  9.717219  -6.284198  1.454433  23.960161  60.382002  36.75844  5.381001  12.891813  -22.04428  -128.993747  16.164138  -12.55281  -8.196641  -3.885856  12.419518  7.932826  -3.066953  9.266738  6.006413  
0.0  93.25843  0.0  -1.741801  -26.983534  -89.971447  19.911353  -12.638321  5.637747  1.404371  -3.025836  2.606694  10.701709  1.108197  4.406486  -12.052716  1.268032  -10.059218  -1.658342  3.664644  2.190122  10.900233  1.966918  1.116235  2.217871  -1.915548  0.009835  6.073255  -5.231786  -0.149306  6.073255  -5.231786  -0.149306  -34.636865  29.338331  -20.964432  122.159032  61.07298  -156.204673  -26.536577  -5.563815  97.214067  68.905827  -16.969001  9.619221  -6.329715  1.414533  23.974238  60.336778  36.724439  5.182865  11.756873  -22.073343  -129.211633  15.470937  -13.187292  -7.657562  -3.947428  12.482153  7.920833  -3.113435  9.313019  5.998914  
0.0  93.25843  0.0  -1.75209  -26.997899  -89.956726  19.809344  -12.824364  5.399529  1.41842  -2.770492  3.148346  10.670685  1.146255  4.422439  -12.42392  1.068416  -10.079322  -1.370469  3.887719  2.320433  10.91215  2.005146  1.086611  2.224172  -1.92151  0.04304  6.087945  -5.2511  -0.059512  6.087945  -5.2511  -0.059512  -34.819953  29.26735  -21.157721  122.396963  60.481774  -155.835615  -26.299761  -6.183743  97.448326  68.809626  -16.975223  9.614408  -6.255842  1.399289  23.99451  60.537384  36.698015  5.068362  11.39243  -22.200463  -129.192436  15.406284  -13.096588  -7.565134  -3.9531  12.557773  7.894706  -3.118001  9.369835  5.979733  
0.0  93.25843  0.0  -1.870298  -26.675511  -89.799739  18.817109  -13.166386  4.73092  1.633272  -2.412675  3.909431  10.752437  1.205469  4.554703  -13.304984  0.722216  -10.26414  -1.390946  4.169212  2.398879  11.232526  2.020436  1.134203  2.189637  -1.948712  0.060915  5.992208  -5.327098  -0.01033  5.992208  -5.327098  -0.010331  -34.600356  29.386024  -21.259998  123.362107  59.829962  -155.487266  -25.711298  -5.89789  98.429963  68.404485  -16.847421  9.673694  -6.442287  1.519632  23.75896  61.013272  36.620853  5.061029  11.133833  -22.465586  -129.237678  15.214832  -13.101567  -7.481544  -3.988709  12.637561  7.840553  -3.14438  9.429571  5.940265  
0.0  93.25843  0.0  -1.929867  -26.469462  -89.781729  18.542169  -13.481497  4.361389  1.641036  -2.038747  4.671997  10.708213  1.23899  4.566938  -13.831459  0.527028  -10.324756  -1.167964  4.400936  2.68366  11.234748  2.079071  1.093818  2.172944  -1.972692  0.084285  5.944811  -5.394719  0.052801  5.944811  -5.39472  0.052801  -34.62054  29.416983  -21.32889  123.80294  59.185913  -154.844717  -25.684629  -5.892015  98.568557  67.768106  -16.588397  9.913031  -6.289735  1.663704  23.812568  61.285003  36.686831  4.944583  10.991884  -22.80879  -129.280724  15.1087  -12.942146  -7.495492  -3.998998  12.731959  7.838598  -3.153103  9.500274  5.939302  
0.0  93.25843  0.0  -2.149189  -25.874372  -89.645621  17.421607  -14.104868  3.601439  1.763056  -1.50662  5.644996  10.83197  1.303392  4.742065  -14.893649  0.155545  -10.482002  -1.516617  4.617694  2.852134  11.579435  2.157887  1.131473  2.096747  -2.029537  0.089109  5.736192  -5.550463  0.067289  5.736192  -5.550463  0.067289  -34.211686  29.695039  -21.257382  124.000524  58.480675  -154.236964  -25.776719  -5.367312  98.764941  67.225963  -16.21302  10.347544  -6.115777  1.916503  23.847007  61.808184  36.813111  4.931997  10.714405  -23.233262  -129.334981  14.916889  -12.773683  -7.4909  -3.968207  12.840625  7.857126  -3.131742  9.582073  5.952796  
0.0  93.25843  0.0  -2.236371  -25.332589  -89.628326  16.933908  -14.459991  3.059264  1.673607  -1.061399  6.637065  10.800503  1.335591  4.782266  -15.540009  0.018737  -10.551741  -1.376897  4.82832  3.244293  11.628326  2.222387  1.094702  2.048327  -2.067671  0.092439  5.603588  -5.654935  0.077238  5.603588  -5.654935  0.077239  -34.182366  29.9005  -21.17024  124.5921  57.776543  -153.486552  -25.986831  -4.771785  98.894851  66.785284  -15.827958  10.826604  -5.770217  2.145447  24.095425  62.298841  37.105169  4.898725  10.121113  -23.686999  -129.358469  14.698652  -12.576018  -7.427401  -4.016658  12.929948  7.916796  -3.170247  9.648115  5.998661  
0.0  93.25843  0.0  -2.469902  -24.455146  -89.547954  16.26356  -15.149576  2.445341  1.197575  -0.464017  7.486048  10.869768  1.423275  4.921919  -16.460836  -0.259101  -10.598197  -2.113606  4.951723  3.454905  12.12692  2.329433  1.132774  1.948701  -2.131436  0.077226  5.332508  -5.827936  0.038979  5.332508  -5.827935  0.038978  -33.490666  30.467065  -20.793579  124.620265  56.98766  -152.858392  -26.095403  -4.285131  99.027249  63.969221  -15.948899  12.960892  -5.8058  2.442173  24.094877  63.675863  37.287195  5.35162  9.214596  -24.147006  -129.376315  14.441148  -12.368281  -7.366013  -4.025225  13.017627  8.03621  -3.180259  9.713061  6.088273  
0.0  93.25843  0.0  -2.558888  -23.521245  -89.551978  15.657721  -15.531691  1.734943  0.870272  0.066455  8.703618  10.81197  1.473157  4.919961  -17.186997  -0.35846  -10.616242  -1.952922  5.189914  3.912663  12.194371  2.384897  1.097522  1.869972  -2.166575  0.060446  5.118596  -5.922712  -0.002732  5.118596  -5.922712  -0.002733  -33.408947  30.843977  -20.52098  125.245716  56.183402  -152.086306  -26.159669  -4.096556  99.154874  63.712453  -15.759195  13.102051  -5.316158  2.75814  24.644777  64.281087  37.818182  5.226782  8.128734  -24.588162  -129.40367  14.217396  -12.106353  -7.37701  -4.157178  13.062725  8.173702  -3.282347  9.744341  6.193957  
0.0  93.25843  0.0  -2.724131  -22.509264  -89.608285  15.975572  -16.12752  1.361844  -0.211604  0.656255  9.52378  10.479245  1.542441  4.748145  -17.929072  -0.51256  -10.526275  -2.380149  5.367348  4.231333  12.266559  2.493526  1.046225  1.788379  -2.210704  0.043719  4.896939  -6.042164  -0.044491  4.896939  -6.042164  -0.044492  -33.129343  31.410411  -20.135701  125.580121  55.298803  -151.47318  -26.145966  -4.180098  99.295517  63.419916  -15.701089  13.077001  -4.937125  3.061813  25.145471  65.042118  38.321447  5.153685  7.065448  -24.97566  -129.466161  13.972959  -11.732014  -7.46044  -4.252307  13.082405  8.391461  -3.358404  9.756469  6.358705  
0.0  93.25843  0.0  -2.82807  -21.154255  -89.638018  15.379621  -16.593851  0.447633  -0.864177  1.28107  10.825269  10.408925  1.62043  4.780563  -18.768238  -0.562376  -10.495075  -2.185371  5.59031  4.743616  12.215308  2.57967  1.013354  1.703862  -2.225262  0.013566  4.668242  -6.080004  -0.120353  4.668242  -6.080004  -0.120353  -33.075325  31.923672  -19.708784  125.963875  54.358465  -150.837703  -26.114042  -4.470953  99.413877  62.923513  -15.75878  13.009469  -4.4774  3.22114  25.740018  65.524941  38.897768  4.926203  6.011956  -25.317279  -129.633689  13.647478  -11.18094  -7.590378  -4.574357  13.016885  8.578501  -3.602224  9.701704  6.505206  
0.0  93.25843  0.0  -3.079945  -20.231272  -89.878028  15.381909  -17.305423  -0.323147  -1.580058  1.95509  12.133361  10.430176  1.718408  4.902458  -19.127741  -0.653016  -10.212367  -2.305952  5.769615  5.234779  12.24059  2.705384  0.988512  1.70108  -2.256995  0.019866  4.66036  -6.167148  -0.105102  4.66036  -6.167147  -0.105102  -32.957769  32.501125  -19.229414  126.382494  53.311218  -150.144101  -26.078949  -4.713668  99.448325  62.292298  -15.898889  12.985894  -4.03852  3.287322  26.291391  66.050718  39.488954  4.748957  5.017349  -25.648001  -129.890175  13.230711  -10.496006  -7.840137  -4.682718  12.872447  8.939263  -3.689169  9.589294  6.776474  
0.0  93.25843  0.0  -3.247331  -18.475274  -89.857631  14.823176  -17.885575  -1.447567  -2.371189  2.672033  13.384987  10.349717  1.789587  4.945439  -20.042302  -0.661903  -10.208585  -2.255015  5.954641  5.790406  12.13914  2.798849  0.979963  1.593611  -2.251583  -0.059969  4.373213  -6.147424  -0.313356  4.373213  -6.147423  -0.313356  -32.647543  33.073435  -18.522193  126.960556  52.031885  -149.341246  -26.030981  -4.831327  99.415187  61.559477  -16.024075  13.02083  -3.397904  3.0693  26.910248  66.504326  40.083518  4.688885  3.892064  -25.896262  -130.145687  12.732611  -9.705825  -8.248452  -5.05194  12.727794  9.252078  -3.969811  9.473091  7.01749  
0.0  93.25843  0.0  -3.465504  -17.082864  -90.026853  14.870443  -18.552304  -2.411242  -3.241706  3.39067  14.561511  10.375174  1.853552  5.06874  -20.437031  -0.638062  -10.013228  -2.464637  6.078239  6.388959  12.089741  2.917782  0.958268  1.629153  -2.19562  -0.077492  4.471487  -5.993122  -0.360821  4.471488  -5.993122  -0.360821  -32.698093  33.197509  -17.867126  130.81192  50.779174  -148.344388  -24.465622  -2.706547  100.881765  60.798419  -16.104455  13.019493  -3.242749  2.371693  27.272761  67.056723  40.849007  4.705368  2.626911  -25.644287  -130.309377  11.988206  -8.541204  -8.774778  -5.626669  12.327349  9.499446  -4.399075  9.16201  7.21255  
0.0  93.25843  0.0  -3.662018  -14.966693  -89.970166  14.576691  -19.085355  -3.614273  -4.217166  4.054334  15.614789  10.189516  1.885601  5.033761  -21.174455  -0.608932  -10.006564  -2.783274  6.284825  6.946207  11.970377  2.988447  0.9621  1.593901  -2.087711  -0.161567  4.380725  -5.692985  -0.580572  4.380725  -5.692985  -0.580572  -32.667734  33.127613  -17.016195  131.31202  49.564848  -147.756117  -24.566449  -2.526923  100.610742  60.069919  -16.180197  12.88384  -3.104672  1.318671  27.733519  67.499016  41.767827  4.74189  1.11084  -25.440245  -130.396222  11.528711  -7.482785  -9.498239  -6.367195  11.787179  9.751824  -4.950338  8.742987  7.413078  
